<?xml version="1.0" encoding="UTF-8" standalone="no"?><!DOCTYPE svg PUBLIC "-//W3C//DTD SVG 1.1//EN" "http://www.w3.org/Graphics/SVG/1.1/DTD/svg11.dtd"><svg width="100%" height="100%" viewBox="0 0 299 128" version="1.1" xmlns="http://www.w3.org/2000/svg" xmlns:xlink="http://www.w3.org/1999/xlink" xml:space="preserve" style="fill-rule:evenodd;clip-rule:evenodd;stroke-linejoin:round;stroke-miterlimit:1.41421;"><g><g><path d="M154.077,53.948c-1.11,1.664 -3.051,2.773 -5.409,2.773c-1.803,0 -3.328,-0.693 -4.577,-1.941c-1.248,-1.248 -1.803,-2.774 -1.803,-4.577c0,-1.803 0.555,-3.328 1.803,-4.576c1.249,-1.249 2.774,-1.942 4.577,-1.942c2.219,0 4.16,1.11 5.27,2.635l-2.219,1.526c-0.693,-1.11 -1.803,-1.665 -3.051,-1.665c-1.11,0 -1.942,0.416 -2.635,1.11c-0.693,0.693 -1.11,1.664 -1.11,2.773c0,1.11 0.417,2.081 1.11,2.774c0.693,0.694 1.525,1.11 2.635,1.11c1.248,0 2.496,-0.694 3.19,-1.803l2.219,1.803Z" style="fill:#0019bd;fill-rule:nonzero;"/><path d="M157.128,45.627c1.248,-1.249 2.773,-1.942 4.576,-1.942c1.803,0 3.328,0.693 4.577,1.942c1.248,1.248 1.941,2.773 1.941,4.576c0,1.803 -0.693,3.329 -1.941,4.577c-1.249,1.248 -2.774,1.941 -4.577,1.941c-1.803,0 -3.328,-0.693 -4.576,-1.941c-1.249,-1.248 -1.803,-2.774 -1.803,-4.577c0,-1.803 0.554,-3.328 1.803,-4.576Zm7.211,1.941c-0.693,-0.693 -1.664,-1.109 -2.635,-1.109c-1.109,0 -1.941,0.416 -2.635,1.109c-0.693,0.694 -1.109,1.664 -1.109,2.774c0,1.109 0.416,1.941 1.109,2.773c0.694,0.694 1.664,1.11 2.635,1.11c1.11,0 1.942,-0.416 2.635,-1.11c0.693,-0.693 1.11,-1.664 1.11,-2.773c0,-1.11 -0.417,-2.08 -1.11,-2.774Z" style="fill:#0019bd;fill-rule:nonzero;"/><path d="M177.375,52.006l3.745,-8.182l2.219,0l1.525,12.759l-2.774,0l-0.832,-7.628l-2.912,6.102l-2.08,0l-3.051,-6.102l-0.971,7.628l-2.774,0l1.526,-12.759l2.219,0l4.16,8.182Z" style="fill:#0019bd;fill-rule:nonzero;"/><path d="M194.156,52.006l3.744,-8.182l2.219,0l1.526,12.759l-2.774,0l-0.832,-7.628l-2.912,6.102l-2.081,0l-3.051,-6.102l-0.97,7.628l-2.774,0l1.525,-12.759l2.219,0l4.161,8.182Z" style="fill:#0019bd;fill-rule:nonzero;"/><path d="M211.075,43.824l2.774,0l0,8.182c0,1.387 -0.416,2.496 -1.387,3.467c-0.971,0.832 -2.08,1.248 -3.467,1.248c-1.387,0 -2.496,-0.416 -3.467,-1.248c-0.971,-0.832 -1.387,-1.941 -1.387,-3.467l0,-8.182l2.774,0l0,8.182c0,0.693 0.277,1.109 0.693,1.526c0.416,0.416 0.971,0.554 1.526,0.554c0.554,0 1.109,-0.138 1.525,-0.554c0.416,-0.417 0.694,-0.971 0.694,-1.526l0,-8.182l-0.278,0Z" style="fill:#0019bd;fill-rule:nonzero;"/><path d="M226.192,43.824l0,12.759l-2.358,0l-4.438,-7.628l0,7.628l-2.635,0l0,-12.759l2.496,0l4.3,7.627l0,-7.627l2.635,0Z" style="fill:#0019bd;fill-rule:nonzero;"/><rect x="229.104" y="43.824" width="2.635" height="12.759" style="fill:#0019bd;fill-rule:nonzero;"/><path d="M245.746,53.948c-1.11,1.664 -3.051,2.773 -5.409,2.773c-1.803,0 -3.328,-0.693 -4.576,-1.941c-1.248,-1.248 -1.803,-2.774 -1.803,-4.577c0,-1.803 0.555,-3.328 1.803,-4.576c1.248,-1.249 2.773,-1.942 4.576,-1.942c2.219,0 4.161,1.11 5.27,2.635l-2.219,1.526c-0.693,-1.11 -1.803,-1.665 -3.051,-1.665c-1.109,0 -1.941,0.416 -2.635,1.11c-0.693,0.693 -1.109,1.664 -1.109,2.773c0,1.11 0.416,2.081 1.109,2.774c0.694,0.694 1.526,1.11 2.635,1.11c1.248,0 2.496,-0.694 3.19,-1.803l2.219,1.803Z" style="fill:#0019bd;fill-rule:nonzero;"/><path d="M254.483,53.532l-4.438,0l-1.109,3.051l-2.913,0l4.715,-12.759l2.913,0l4.715,12.759l-2.774,0l-1.109,-3.051Zm-3.467,-2.358l2.635,0l-1.387,-4.438l-1.248,4.438Z" style="fill:#0019bd;fill-rule:nonzero;"/><path d="M257.811,46.32l0,-2.496l9.569,0l0,2.496l-3.467,0l0,10.263l-2.773,0l0,-10.263l-3.329,0Z" style="fill:#0019bd;fill-rule:nonzero;"/><rect x="269.461" y="43.824" width="2.635" height="12.759" style="fill:#0019bd;fill-rule:nonzero;"/><path d="M276.256,45.627c1.248,-1.249 2.774,-1.942 4.577,-1.942c1.802,0 3.328,0.693 4.576,1.942c1.248,1.248 1.942,2.773 1.942,4.576c0,1.803 -0.694,3.329 -1.942,4.577c-1.248,1.248 -2.774,1.941 -4.576,1.941c-1.803,0 -3.329,-0.693 -4.577,-1.941c-1.248,-1.248 -1.803,-2.774 -1.803,-4.577c-0.139,-1.803 0.555,-3.328 1.803,-4.576Zm7.212,1.941c-0.694,-0.693 -1.665,-1.109 -2.635,-1.109c-1.11,0 -1.942,0.416 -2.635,1.109c-0.694,0.694 -1.11,1.664 -1.11,2.774c0,1.109 0.416,1.941 1.11,2.773c0.693,0.694 1.664,1.11 2.635,1.11c1.109,0 1.941,-0.416 2.635,-1.11c0.693,-0.693 1.109,-1.664 1.109,-2.773c0,-1.11 -0.416,-2.08 -1.109,-2.774Z" style="fill:#0019bd;fill-rule:nonzero;"/><path d="M299,43.824l0,12.759l-2.358,0l-4.437,-7.628l0,7.628l-2.635,0l0,-12.759l2.496,0l4.299,7.627l0,-7.627l2.635,0Z" style="fill:#0019bd;fill-rule:nonzero;"/><path d="M153.383,74.334c-1.248,1.248 -2.774,1.942 -4.576,1.942c-1.803,0 -3.19,-0.694 -4.438,-1.942c-1.11,-1.248 -1.803,-2.774 -1.803,-4.577c0,-1.802 0.555,-3.328 1.664,-4.576c1.11,-1.248 2.635,-1.942 4.438,-1.942c1.803,0 3.328,0.694 4.576,1.942l-0.832,0.832c-0.97,-0.971 -2.219,-1.526 -3.605,-1.526c-1.387,0 -2.635,0.555 -3.606,1.526c-0.971,0.971 -1.387,2.219 -1.387,3.744c0,1.526 0.416,2.774 1.387,3.745c0.971,0.971 2.08,1.525 3.606,1.525c1.525,0 2.635,-0.554 3.744,-1.525l0.832,0.832Z" style="fill:#aaa;fill-rule:nonzero;"/><path d="M155.463,75.998l-1.248,0l4.854,-12.759l1.248,0l4.854,12.759l-1.248,0l-1.248,-3.328l-5.825,0l-1.387,3.328Zm6.796,-4.438l-2.496,-6.518l-2.497,6.518l4.993,0Z" style="fill:#aaa;fill-rule:nonzero;"/><path d="M167.529,63.239l1.248,0l0,11.511l5.409,0l0,1.248l-6.657,0l0,-12.759l0,0Z" style="fill:#aaa;fill-rule:nonzero;"/><path d="M177.653,63.239l0,12.759l-1.249,0l0,-12.759l1.249,0Z" style="fill:#aaa;fill-rule:nonzero;"/><path d="M187.776,69.203c0.694,0.138 1.11,0.554 1.526,1.109c0.416,0.555 0.693,1.387 0.693,2.08c0,0.971 -0.277,1.803 -0.97,2.497c-0.694,0.693 -1.526,0.97 -2.635,0.97l-4.993,0l0,-12.758l4.577,0c2.08,0 3.328,1.248 3.328,3.189c0,1.665 -0.555,2.497 -1.526,2.913Zm-5.131,-0.555l3.606,0c1.248,0 1.941,-0.971 1.941,-2.219c0,-1.248 -0.832,-1.942 -2.218,-1.942l-3.329,0l0,4.161Zm0,1.248l0,4.993l3.745,0c0.693,0 1.248,-0.278 1.664,-0.694c0.416,-0.416 0.693,-0.971 0.693,-1.664c0,-0.693 -0.277,-1.248 -0.693,-1.803c-0.416,-0.555 -0.971,-0.832 -1.664,-0.832l-3.745,0Z" style="fill:#aaa;fill-rule:nonzero;"/><path d="M201.09,75.998l-1.387,0l-3.467,-4.992l-2.08,0l0,4.992l-1.387,0l0,-12.759l4.715,0c1.248,0 2.08,0.416 2.635,1.11c0.555,0.693 0.832,1.664 0.832,2.773c0,1.11 -0.277,1.942 -0.832,2.774c-0.555,0.694 -1.387,1.11 -2.496,1.11l3.467,4.992Zm-7.073,-11.511l0,5.27l3.329,0c1.664,0 2.357,-1.109 2.357,-2.635c0,-1.525 -0.693,-2.635 -2.357,-2.635l-3.329,0Z" style="fill:#aaa;fill-rule:nonzero;"/><path d="M203.864,75.998l-1.387,0l4.854,-12.759l1.248,0l4.854,12.759l-1.248,0l-1.249,-3.328l-5.824,0l-1.248,3.328Zm6.656,-4.438l-2.496,-6.518l-2.496,6.518l4.992,0Z" style="fill:#aaa;fill-rule:nonzero;"/><path d="M213.433,63.239l9.43,0l0,1.248l-4.022,0l0,11.511l-1.248,0l0,-11.511l-4.022,0l0,-1.248l-0.138,0Z" style="fill:#aaa;fill-rule:nonzero;"/><path d="M225.082,63.239l7.212,0l0,1.248l-5.964,0l0,4.577l5.27,0l0,1.248l-5.27,0l0,4.438l6.241,0l0,1.248l-7.489,0l0,-12.759l0,0Z" style="fill:#aaa;fill-rule:nonzero;"/><path d="M235.345,75.998l0,-12.759l4.715,0c1.803,0 3.051,0.555 4.16,1.803c0.971,1.248 1.526,2.774 1.526,4.577c0,1.803 -0.555,3.328 -1.526,4.576c-0.97,1.248 -2.357,1.803 -4.16,1.803l-4.715,0l0,0Zm1.248,-11.511l0,10.263l3.606,0c1.386,0 2.496,-0.416 3.328,-1.387c0.693,-0.971 1.109,-2.219 1.109,-3.744c0,-1.526 -0.416,-2.774 -1.109,-3.745c-0.694,-0.97 -1.803,-1.387 -3.328,-1.387l-3.606,0l0,0Z" style="fill:#aaa;fill-rule:nonzero;"/></g><g id="XMLID_1_"><circle id="XMLID_18_" cx="63.933" cy="63.933" r="63.933" style="fill:#aaa;"/><g id="XMLID_2_"><path id="XMLID_8_" d="M41.189,82.239l-1.387,0m-14.146,-0.555l-5.408,0l8.737,-41.605l11.51,30.372l9.986,-30.233l10.123,41.605l-5.408,0" style="fill:#0019bd;fill-rule:nonzero;"/><path id="XMLID_6_" d="M82.932,81.684l-6.934,0l-15.394,0l0.971,0l-6.379,0l17.612,-42.159l16.365,42.159l-6.241,0Z" style="fill:#0019bd;fill-rule:nonzero;"/><path id="XMLID_4_" d="M110.946,48.123l-19.138,13.313c0,0 -2.08,1.249 -2.08,4.3l0,15.948l-5.686,0l0,-42.021" style="fill:#0019bd;fill-rule:nonzero;"/></g></g></g></svg>