<?xml version="1.0" encoding="UTF-8" standalone="no"?><!DOCTYPE svg PUBLIC "-//W3C//DTD SVG 1.1//EN" "http://www.w3.org/Graphics/SVG/1.1/DTD/svg11.dtd"><svg width="100%" height="100%" viewBox="0 0 1206 981" version="1.1" xmlns="http://www.w3.org/2000/svg" xmlns:xlink="http://www.w3.org/1999/xlink" xml:space="preserve" style="fill-rule:evenodd;clip-rule:evenodd;stroke-linejoin:round;stroke-miterlimit:1.41421;"><g><path d="M240.646,981l-142.821,0l253.712,-216.234l-127.552,-140.14l-223.985,190.899l0,-121.755l127.593,-108.726l-127.593,-4.797l0,-202.701l68.326,-58.222l-68.326,-75.006l0,-142.779l23.692,26.382l82.038,-127.921l112.568,0l-129.184,200.771l51.299,57.124l302.646,-257.895l142.751,0l-404.264,344.547l217.205,9.433l415.404,-353.98l142.717,0l-328.914,280.327l47.931,56.248l394.91,-336.575l135.201,0l0,6.461l-242.435,206.588l240.139,3.014l2.296,-2.24l0,129.682l-84.726,82.616l84.726,86.861l0,132.549l-40.99,-42.068l-112.505,175.08l153.495,180.13l0,22.327l-102.652,0l-545.931,-640.552l-49.002,41.764l510.249,598.788l-121.694,0l-276.124,-323.982l-380.2,323.982Zm56.763,-418.951l126.521,141.018l136.796,-116.589l-122.853,-144.145l-140.464,119.716Zm622.282,60.633l67.523,79.24l109.682,-168.366l-41.803,-42.903l-135.402,132.029Zm-183.766,-215.653l123.491,144.92l250.16,-244.056l-253.658,-3.115l-119.993,102.251Zm-718.76,77.618l217.177,9.432l57.87,-49.313l-218.607,-8.222l-56.44,48.103Z" style="fill:#0019bd;"/></g></svg>