<?xml version="1.0" encoding="UTF-8" standalone="no"?><!DOCTYPE svg PUBLIC "-//W3C//DTD SVG 1.1//EN" "http://www.w3.org/Graphics/SVG/1.1/DTD/svg11.dtd"><svg width="100%" height="100%" viewBox="0 0 1366 760" version="1.1" xmlns="http://www.w3.org/2000/svg" xmlns:xlink="http://www.w3.org/1999/xlink" xml:space="preserve" style="fill-rule:evenodd;clip-rule:evenodd;stroke-linejoin:round;stroke-miterlimit:1.41421;"><g><g><path d="M541.564,247.88l18.091,-68.099l1113.25,13.973l30.446,68.392l-1161.79,-14.266Z" style="fill:#0019bd;"/><path d="M254.022,338.775l31.476,-67.951l722.164,847.477l-31.475,67.804l-722.165,-847.33Z" style="fill:#0019bd;"/><path d="M69.436,442.908l81.63,-15.59l141.197,157.376l-64.862,31.769l-157.965,-173.555Z" style="fill:#0019bd;"/><path d="M692.322,629.7l-36.182,-74.717l115.458,-177.231l47.654,54.419l-126.93,197.529Z" style="fill:#0019bd;"/><path d="M-165.892,85.944l81.63,-15.59l141.197,157.229l-64.863,31.769l-157.964,-173.408Z" style="fill:#0019bd;"/><path d="M71.79,-57.606l48.536,53.243l-127.665,198.411l-47.36,-54.419l126.489,-197.235Z" style="fill:#0019bd;"/><path d="M-171.922,446.144l58.538,-68.834l264.156,11.473l-29.269,68.392l-293.425,-11.031Z" style="fill:#0019bd;"/><path d="M254.022,338.775l31.476,-67.951l722.164,847.477l-31.475,67.804l-722.165,-847.33Z" style="fill:#0019bd;"/><path d="M379.482,432.466l67.951,31.475l-847.477,722.164l-67.804,-31.475l847.33,-722.164Z" style="fill:#0019bd;"/><path d="M335.799,256.999l31.475,-67.951l722.165,847.476l-31.476,67.805l-722.164,-847.33Z" style="fill:#0019bd;"/><path d="M-287.675,586.312l-67.951,-31.476l847.477,-722.164l67.804,31.475l-847.33,722.165Z" style="fill:#0019bd;"/><path d="M-162.362,711.624l-67.951,-31.475l847.477,-722.165l67.804,31.476l-847.33,722.164Z" style="fill:#0019bd;"/><path d="M468.465,334.51l-67.804,-31.475l847.33,-722.165l67.951,31.476l-847.477,722.164Z" style="fill:#0019bd;"/><path d="M1375.8,-354.267l35.299,61.038l-797.175,777.32l-69.863,-26.916l831.739,-811.442Z" style="fill:#0019bd;"/><path d="M1375.8,-354.267l35.299,61.038l-797.175,777.32l-69.863,-26.916l831.739,-811.442Z" style="fill:#0019bd;"/><path d="M1550.98,1143.6l-61.039,35.446l-777.025,-797.469l26.769,-69.716l811.295,831.739Z" style="fill:#0019bd;"/><path d="M-74.408,342.305l58.391,-68.833l264.156,11.472l-29.269,68.392l-293.278,-11.031Z" style="fill:#0019bd;"/></g></g></svg>